<?xml version="1.0" encoding="utf-8"?>

<!-- License: OFL. Made by kudakurage: https://github.com/kudakurage/LigatureSymbols -->
<svg fill="#000000"  viewBox="0 0 220 240" version="1.1" xmlns="http://www.w3.org/2000/svg">
<title>one</title>
<path d="M50.906 24.225h6.469v204.969h-15.281v-180.75h-25.188v-12.219z"></path>

<path d="M128,104a63.75508,63.75508,0,0,0-19.49121,3.04492l42.36035-70.9436a8.00043,8.00043,0,0,0-13.73828-8.20288L72.6416,135.90332c-.10449.17529-.19385.355-.28369.53442A63.97854,63.97854,0,1,0,128,104Zm0,112a47.97612,47.97612,0,0,1-41.15674-72.67017l.17749-.29736A47.99419,47.99419,0,1,1,128,216Z"/>


  <rect fill="#000 " x="99" y="34" width="22" height="172"/>
  <rect fill="#FFFFFF " x="25" y="100" width="170" stroke="black" height="20"/>
<rect fill="#FFFFFF " x="100" y="35" width="20" height="170"/>
  
</svg>